<svg height="512pt" viewBox="-127 0 512 512" width="512pt" xmlns="http://www.w3.org/2000/svg"><path d="m158.722656 434.785156 12.152344-191.648437h17.683594c10.4375 0 18.898437-8.457031 18.898437-18.898438v-84.746093c0-13.027344-10.5625-23.585938-23.589843-23.585938h-19.125c-8.617188 0-15.960938-5.445312-18.785157-13.082031 8.945313-4.746094 15.433594-13.0625 17.019531-23.019531l5.1875-32.660157c3.523438-22.15625-15.191406-42.023437-39.585937-42.023437-24.390625 0-43.105469 19.867187-39.585937 42.023437l5.191406 32.660157c1.582031 9.957031 8.074218 18.273437 17.019531 23.019531-2.824219 7.636719-10.167969 13.082031-18.785156 13.082031h-19.128907c-13.027343 0-23.585937 10.558594-23.585937 23.585938v84.746093c0 10.4375 8.460937 18.898438 18.898437 18.898438h17.683594l12.148438 191.648437zm0 0" fill="#fddf7f"/><path d="m126.820312 211.253906-20.28125 10.660156c-2.773437 1.457032-6.015624-.898437-5.484374-3.984374l3.871093-22.585938c.210938-1.226562-.195312-2.476562-1.085937-3.34375l-16.40625-15.996094c-2.246094-2.1875-1.007813-5.996094 2.09375-6.449218l22.675781-3.292969c1.230469-.179688 2.292969-.953125 2.84375-2.070313l10.140625-20.546875c1.386719-2.808593 5.394531-2.808593 6.78125 0l10.140625 20.546875c.550781 1.117188 1.617187 1.890625 2.847656 2.070313l22.675781 3.292969c3.101563.453124 4.339844 4.261718 2.09375 6.449218l-16.40625 15.996094c-.890624.867188-1.296874 2.117188-1.089843 3.34375l3.875 22.585938c.53125 3.085937-2.710938 5.441406-5.484375 3.984374l-20.28125-10.660156c-1.101563-.582031-2.417969-.582031-3.519532 0zm0 0" fill="#ecf4f7"/><path d="m198.003906 478.722656h-6.6875v-33.070312c0-6.003906-4.867187-10.867188-10.871094-10.867188h-103.730468c-6.003906 0-10.871094 4.863282-10.871094 10.867188v33.070312h-6.6875c-3.109375 0-5.628906 2.519532-5.628906 5.628906v22.527344h150.105468v-22.527344c0-3.109374-2.519531-5.628906-5.628906-5.628906zm0 0" fill="#aab1ba"/><path d="m25.964844 46.386719h-6.691406c-2.828126 0-5.121094-2.292969-5.121094-5.121094s2.292968-5.121094 5.121094-5.121094h6.691406v-6.691406c0-2.828125 2.292968-5.117187 5.121094-5.117187 2.828124 0 5.121093 2.289062 5.121093 5.117187v6.691406h6.6875c2.828125 0 5.121094 2.292969 5.121094 5.121094s-2.292969 5.121094-5.121094 5.121094h-6.6875v6.691406c0 2.828125-2.292969 5.117187-5.121093 5.117187-2.828126 0-5.121094-2.289062-5.121094-5.117187zm211.917968 238.347656h-6.6875v-6.691406c0-2.828125-2.292968-5.121094-5.121093-5.121094s-5.121094 2.292969-5.121094 5.121094v6.691406h-6.691406c-2.828125 0-5.117188 2.292969-5.117188 5.121094s2.289063 5.117187 5.117188 5.117187h6.691406v6.695313c0 2.828125 2.292969 5.117187 5.121094 5.117187s5.121093-2.289062 5.121093-5.117187v-6.695313h6.6875c2.828126 0 5.121094-2.289062 5.121094-5.117187s-2.292968-5.121094-5.121094-5.121094zm-193.300781-145.242187c0-15.828126 12.878907-28.707032 28.707031-28.707032h19.128907c4.835937 0 9.304687-2.378906 12.066406-6.175781-8.0625-5.707031-13.796875-14.195313-15.355469-24.003906l-5.191406-32.65625c-1.835938-11.542969 1.449219-22.933594 9.25-32.066407 8.613281-10.09375 21.515625-15.882812 35.390625-15.882812 13.878906 0 26.78125 5.789062 35.394531 15.882812 7.800782 9.132813 11.082032 20.523438 9.25 32.066407l-5.191406 32.65625c-1.558594 9.804687-7.292969 18.292969-15.355469 24.003906 2.761719 3.796875 7.230469 6.175781 12.066407 6.175781h19.125c15.832031 0 28.710937 12.878906 28.710937 28.707032v84.75c0 13.242187-10.777344 24.019531-24.019531 24.019531h-12.878906l-10.6875 168.554687c-.171876 2.710938-2.425782 4.796875-5.105469 4.796875-.105469 0-.21875-.003906-.328125-.011719-2.820313-.175781-4.964844-2.609374-4.785156-5.433593l10.644531-167.910157h-5.125c-7.035157 0-12.757813-5.722656-12.757813-12.757812v-9.425781l-18.957031-9.960938-18.953125 9.960938v9.425781c0 7.035156-5.722656 12.757812-12.757812 12.757812h-5.128907l10.648438 167.910157c.179687 2.824219-1.964844 5.257812-4.785157 5.433593-.113281.007813-.222656.011719-.328124.011719-2.679688 0-4.933594-2.082031-5.105469-4.796875l-10.6875-168.554687h-12.878907c-13.242187 0-24.019531-10.777344-24.019531-24.019531zm88.140625 67.226562 17.878906 9.402344-3.414062-19.910156c-.496094-2.886719.460938-5.832032 2.558594-7.875l14.464844-14.101563-19.988282-2.90625c-2.898437-.417969-5.40625-2.238281-6.703125-4.867187l-8.941406-18.113282-8.9375 18.113282c-1.296875 2.628906-3.804687 4.449218-6.707031 4.867187l-19.984375 2.90625 14.464843 14.101563c2.097657 2.042968 3.054688 4.988281 2.558594 7.875l-3.414062 19.910156 17.878906-9.402344c1.296875-.679688 2.71875-1.023438 4.140625-1.023438 1.425781 0 2.847656.34375 4.144531 1.023438zm-33.480468-127.71875c2.082031 13.101562 14.695312 22.984375 29.335937 22.984375 14.644531 0 27.257813-9.878906 29.339844-22.984375l5.191406-32.660156c1.355469-8.535156-1.101563-16.992188-6.925781-23.808594-6.664063-7.8125-16.726563-12.292969-27.605469-12.292969-10.875 0-20.9375 4.480469-27.605469 12.289063-5.820312 6.820312-8.277344 15.277344-6.921875 23.8125zm-44.417969 145.238281c0 7.597657 6.175781 13.777344 13.769531 13.78125h.007812 28.265626c1.386718 0 2.515624-1.132812 2.515624-2.519531v-8.023438h-16.652343c-5.003907 0-9.078125-4.070312-9.078125-9.074218v-19.324219c0-2.828125 2.292968-5.117187 5.121094-5.117187 2.828124 0 5.121093 2.289062 5.121093 5.117187v18.160156h12.09375c.011719-.058593.007813-.117187.019531-.175781l3.753907-21.890625-15.902344-15.5c-2.445313-2.382813-3.308594-5.878906-2.253906-9.125 1.054687-3.246094 3.808593-5.566406 7.1875-6.058594l21.976562-3.195312 9.828125-19.914063c1.511719-3.058594 4.570313-4.960937 7.984375-4.960937 3.414063 0 6.46875 1.902343 7.980469 4.960937l9.828125 19.914063 21.980469 3.195312c3.375.492188 6.128906 2.8125 7.183594 6.058594 1.054687 3.246094.191406 6.742187-2.25 9.125l-15.90625 15.503906 3.753906 21.886719c.011718.058594.007812.117188.015625.175781h12.097656v-18.15625c0-2.828125 2.292969-5.121093 5.121094-5.121093s5.121093 2.292968 5.121093 5.121093v19.320313c0 5.003906-4.074218 9.074218-9.078124 9.074218h-16.65625v8.023438c0 1.390625 1.132812 2.519531 2.519531 2.519531h28.265625.007812c7.59375-.003906 13.769532-6.183593 13.769532-13.777343v-84.75c0-10.183594-8.285157-18.46875-18.464844-18.46875h-19.128906c-8.632813 0-16.585938-4.492188-21.148438-11.570313-4.667969 1.78125-9.742188 2.773437-15.011719 2.773437-5.273437 0-10.347656-.992187-15.015625-2.773437-4.5625 7.078125-12.511718 11.570313-21.148437 11.570313h-19.125c-10.183594 0-18.46875 8.285156-18.46875 18.46875zm73.753906 197.375c2.828125 0 5.121094-2.292969 5.121094-5.121093v-136.214844l11.835937-10.847656c2.082032-1.910157 2.222656-5.148438.3125-7.234376-1.910156-2.082031-5.148437-2.226562-7.234375-.316406l-10.035156 9.199219-10.035156-9.195313c-2.082031-1.910156-5.320313-1.769531-7.230469.3125-1.914062 2.085938-1.773438 5.324219.3125 7.234376l11.835938 10.847656v136.214844c0 2.828124 2.289062 5.121093 5.117187 5.121093zm-119.734375 80.148438h-3.722656c-2.828125 0-5.121094 2.289062-5.121094 5.117187s2.292969 5.121094 5.121094 5.121094h3.722656c2.828125 0 5.121094-2.292969 5.121094-5.121094s-2.292969-5.117187-5.121094-5.117187zm226.945312 5.117187c0 2.828125-2.289062 5.121094-5.117187 5.121094h-49.386719c-2.828125 0-5.117187-2.292969-5.117187-5.121094s2.289062-5.117187 5.117187-5.117187h17.226563v-17.410157c0-.28125-.226563-.511718-.511719-.511718h-138.84375c-.28125 0-.511719.230468-.511719.511718v17.410157h17.226563c2.828125 0 5.121094 2.289062 5.121094 5.117187s-2.292969 5.121094-5.121094 5.121094h-49.382813c-2.828125 0-5.121093-2.292969-5.121093-5.121094s2.292968-5.117187 5.121093-5.117187h21.917969v-17.410157c0-5.925781 4.824219-10.75 10.75-10.75h1.566406v-27.949218c0-8.816406 7.171875-15.988282 15.992188-15.988282h103.730468c8.816407 0 15.992188 7.171876 15.992188 15.988282v27.949218h1.5625c5.929688 0 10.753906 4.824219 10.753906 10.75v17.410157h21.914063c2.832031 0 5.121093 2.289062 5.121093 5.117187zm-49.589843-33.277344v-27.949218c0-3.167969-2.582031-5.75-5.753907-5.75h-103.730468c-3.171875 0-5.753906 2.582031-5.753906 5.75v27.949218zm65.839843 28.160157h-3.726562c-2.828125 0-5.117188 2.289062-5.117188 5.117187s2.289063 5.121094 5.117188 5.121094h3.726562c2.828126 0 5.117188-2.292969 5.117188-5.121094s-2.289062-5.117187-5.117188-5.117187zm-140.835937-457.289063h9.214844c.546875 0 .992187.449219.992187 1v19.0625c0 2.828125 2.292969 5.121094 5.121094 5.121094s5.121094-2.292969 5.121094-5.121094v-19.066406c0-6.195312-5.039063-11.234375-11.234375-11.234375h-9.214844c-2.828125 0-5.121094 2.289063-5.121094 5.117187 0 2.828126 2.292969 5.121094 5.121094 5.121094zm30.835937 0h5.480469c2.828125 0 5.121094-2.289062 5.121094-5.117187s-2.292969-5.121094-5.121094-5.121094h-5.480469c-2.828124 0-5.121093 2.292969-5.121093 5.121094s2.292969 5.117187 5.121093 5.117187zm0 0" fill="#1c1d21"/></svg>