<svg height="512pt" viewBox="-31 0 511 512" width="512pt" xmlns="http://www.w3.org/2000/svg"><path d="m428.207031 207.089844-57.035156 288.136718c-1.933594 9.75-10.480469 16.773438-20.417969 16.773438h-251.929687c-9.960938 0-18.527344-7.0625-20.429688-16.839844l-56.039062-288.070312zm0 0" fill="#ff2e2e"/><path d="m431.328125 207.089844h-412.097656c-10.34375 0-18.730469-8.386719-18.730469-18.734375v-14.566407c0-10.347656 8.386719-18.734374 18.730469-18.734374h412.097656c10.347656 0 18.734375 8.386718 18.734375 18.734374v14.566407c0 10.347656-8.386719 18.734375-18.734375 18.734375zm0 0" fill="#efefef"/><path d="m427.167969 155.058594v12.488281c0 11.492187-9.320313 20.8125-20.8125 20.8125h-405.855469c0 10.34375 8.386719 18.730469 18.734375 18.730469h412.097656c10.34375 0 18.730469-8.386719 18.730469-18.730469v-14.570313c0-10.34375-8.386719-18.730468-18.730469-18.730468zm0 0" fill="#e2e2e2"/><path d="m313.734375 512h-58.273437l15.609374-304.910156h89.496094zm0 0" fill="#efefef"/><path d="m330.386719 207.089844-46.828125 304.910156h30.175781l46.832031-304.910156zm0 0" fill="#e2e2e2"/><path d="m138.90625 512h57.238281l-16.652343-304.910156h-89.496094zm0 0" fill="#efefef"/><path d="m179.492188 207.089844h-30.179688l16.652344 304.910156h30.179687zm0 0" fill="#e2e2e2"/><path d="m430.808594 155.058594c0-21.839844-17.703125-39.546875-39.542969-39.546875-1.660156 0-3.289063.113281-4.894531.3125.132812-1.128907.210937-2.269531.210937-3.433594 0-14.746094-10.957031-26.925781-25.167969-28.863281-1.953124-20.015625-18.824218-35.65625-39.351562-35.65625-7.257812 0-14.050781 1.960937-19.898438 5.375-3.527343-12.125-14.710937-20.984375-27.972656-20.984375-3.425781 0-6.714844.59375-9.769531 1.679687-2.71875-19.183594-19.203125-33.941406-39.140625-33.941406s-36.421875 14.757812-39.144531 33.945312c-3.050781-1.089843-6.339844-1.683593-9.765625-1.683593-13.261719 0-24.445313 8.859375-27.972656 20.984375-5.847657-3.410156-12.640626-5.375-19.898438-5.375-20.527344 0-37.398438 15.644531-39.351562 35.660156-14.214844 1.9375-25.167969 14.117188-25.167969 28.859375 0 1.164063.074219 2.308594.207031 3.433594-1.605469-.195313-3.234375-.308594-4.890625-.308594-21.839844 0-39.546875 17.703125-39.546875 39.542969zm0 0" fill="#fff9cc"/><g fill="#f2ecaa"><path d="m213.3125 16.648438c19.941406 0 36.421875 14.757812 39.144531 33.945312 3.054688-1.085938 6.339844-1.683594 9.769531-1.683594 13.257813 0 24.445313 8.863282 27.972657 20.984375 5.84375-3.410156 12.640625-5.375 19.894531-5.375 20.527344 0 37.402344 15.644531 39.355469 35.660157 14.210937 1.9375 25.167969 14.117187 25.167969 28.863281 0 1.160156-.078126 2.304687-.210938 3.433593 1.605469-.199218 3.234375-.3125 4.894531-.3125 15.886719 0 29.582031 9.375 35.867188 22.894532h15.644531c0-21.839844-17.707031-39.546875-39.546875-39.546875-1.65625 0-3.285156.117187-4.890625.3125.132812-1.125.207031-2.269531.207031-3.433594 0-14.746094-10.953125-26.921875-25.167969-28.863281-1.953124-20.015625-18.824218-35.65625-39.351562-35.65625-7.257812 0-14.050781 1.960937-19.898438 5.375-3.527343-12.125-14.710937-20.984375-27.972656-20.984375-3.425781 0-6.714844.59375-9.769531 1.679687-2.71875-19.183594-19.203125-33.941406-39.140625-33.941406-16.925781 0-31.359375 10.640625-37 25.59375 6.816406-5.585938 15.53125-8.945312 25.03125-8.945312zm0 0"/><path d="m179.492188 129.5625c-4.308594 0-7.804688-3.496094-7.804688-7.804688 0-9.757812-7.9375-17.691406-17.691406-17.691406s-17.691406 7.933594-17.691406 17.691406c0 4.308594-3.492188 7.804688-7.804688 7.804688s-7.804688-3.496094-7.804688-7.804688c0-18.363281 14.9375-33.304687 33.300782-33.304687 18.363281 0 33.300781 14.941406 33.300781 33.304687 0 4.308594-3.492187 7.804688-7.804687 7.804688zm0 0"/><path d="m339.753906 123.316406c-4.3125 0-7.804687-3.492187-7.804687-7.804687 0-9.753907-7.9375-17.691407-17.691407-17.691407-4.3125 0-7.804687-3.492187-7.804687-7.804687 0-4.308594 3.492187-7.804687 7.804687-7.804687 18.359376 0 33.300782 14.9375 33.300782 33.300781 0 4.3125-3.496094 7.804687-7.804688 7.804687zm0 0"/><path d="m197.703125 84.292969c-4.308594 0-7.804687-3.492188-7.804687-7.804688 0-18.363281 14.941406-33.300781 33.300781-33.300781 4.3125 0 7.804687 3.492188 7.804687 7.804688s-3.492187 7.804687-7.804687 7.804687c-9.753907 0-17.691407 7.9375-17.691407 17.691406 0 4.308594-3.492187 7.804688-7.804687 7.804688zm0 0"/><path d="m281.476562 75.96875c0 5.746094-4.660156 10.40625-10.40625 10.40625-5.746093 0-10.40625-4.660156-10.40625-10.40625 0-5.75 4.660157-10.410156 10.40625-10.410156 5.746094 0 10.40625 4.660156 10.40625 10.410156zm0 0"/><path d="m108.730469 121.757812c0 5.746094-4.660157 10.40625-10.410157 10.40625-5.746093 0-10.40625-4.660156-10.40625-10.40625 0-5.75 4.660157-10.410156 10.40625-10.410156 5.75 0 10.410157 4.660156 10.410157 10.410156zm0 0"/><path d="m255.460938 116.554688c0 5.746093-4.660157 10.40625-10.40625 10.40625-5.75 0-10.410157-4.660157-10.410157-10.40625 0-5.75 4.660157-10.410157 10.410157-10.410157 5.746093 0 10.40625 4.660157 10.40625 10.410157zm0 0"/></g></svg>